#!OML:ASF F:\twosubjects\two\wednesday\Session 1\rory1.ASF
:FULLY-SPECIFIED
:DEGREES
482
root 9.03156 17.9905 11.1471 -175.294 5.27293 175.305
lowerback 15.641 1.88529 -5.60904
upperback 3.39935 1.99613 -1.66053
thorax -5.24854 1.26014 0.995897
lowerneck -12.6728 -1.44946 -3.42857
upperneck 0.422135 -1.71289 1.29536
head 2.37892 -0.92648 0.912593
rclavicle 2.00151e-014 -3.77691e-015
rhumerus -23.963 2.66812 -74.0256
rradius 106.942
rwrist -11.3156
rhand -25.7956 54.8515
rfingers 7.12502
rthumb 0.743198 24.8731
lclavicle 2.00151e-014 -3.77691e-015
lhumerus -14.8879 -10.6908 72.9442
lradius 115.193
lwrist 18.7806
lhand -30.2509 8.96844
lfingers 7.12502
lthumb -3.55979 38.9185
rfemur -26.3831 4.73617 9.94442
rtibia 45.1885
rfoot -17.7624 -7.39065
rtoes 6.34666
lfemur -23.4769 4.63868 -19.5591
ltibia 41.1717
lfoot -18.2931 0.778857
ltoes -10.474
483
root 8.9854 18.0768 11.0868 -175.606 7.53669 174.641
lowerback 15.1312 2.39301 -5.86848
upperback 3.23906 2.62066 -2.28666
thorax -5.16035 1.56695 0.368253
lowerneck -12.7087 -1.50886 -3.18154
upperneck 1.17483 -1.40622 1.47851
head 2.63726 -0.585215 0.957314
rclavicle 1.98785e-014 -1.67973e-014
rhumerus -22.1904 3.88434 -74.5328
rradius 106.848
rwrist -10.8247
rhand -24.8491 55.0195
rfingers 7.12502
rthumb 1.65726 25.0461
lclavicle 1.98785e-014 -1.67973e-014
lhumerus -17.7298 -10.1765 73.4939
lradius 115.365
lwrist 18.782
lhand -29.9152 8.48372
lfingers 7.12502
lthumb -3.23555 38.4389
rfemur -25.6904 5.99868 8.95685
rtibia 43.6368
rfoot -17.3094 -6.6275
rtoes 6.11066
lfemur -21.668 4.96711 -20.4703
ltibia 39.1912
lfoot -18.4323 2.01222
ltoes -8.38295
484
root 8.93992 18.1505 11.029 -175.781 9.69896 174.419
lowerback 14.369 2.73753 -5.69971
upperback 3.14704 3.1255 -2.71752
thorax -4.83781 1.80269 -0.243283
lowerneck -12.6622 -1.1992 -2.97896
upperneck 1.7337 -1.06576 1.52427
head 2.80966 -0.430783 0.959369
rclavicle -5.1684e-015 1.19271e-015
rhumerus -20.1244 5.47436 -74.9124
rradius 106.566
rwrist -10.1418
rhand -24.1759 55.389
rfingers 7.12502
rthumb 2.30751 25.4218
lclavicle -5.1684e-015 1.19271e-015
lhumerus -20.5909 -9.22578 73.8949
lradius 115.727
lwrist 19.1276
lhand -29.7846 8.48037
lfingers 7.12502
lthumb -3.10948 38.4374
rfemur -25.1346 7.31566 8.48482
rtibia 42.1007
rfoot -16.5115 -6.10543
rtoes 3.96312
lfemur -20.0822 5.1931 -20.923
ltibia 37.2125
lfoot -18.6193 3.63121
ltoes -7.89769
485
root 8.8927 18.2185 10.9692 -175.832 11.8826 174.45
lowerback 13.4845 3.01479 -5.19976
upperback 3.07923 3.59824 -3.11693
thorax -4.39353 2.01848 -0.977605
lowerneck -12.5941 -0.915721 -2.43383
upperneck 1.90483 -0.771194 1.23968
head 2.84032 -0.29684 0.78813
rclavicle 4.29375e-014 1.98785e-014
rhumerus -17.9138 7.18695 -75.3085
rradius 106.166
rwrist -8.39668
rhand -25.6046 55.5958
rfingers 7.12502
rthumb 0.927678 25.6181
lclavicle 4.29375e-014 1.98785e-014
lhumerus -23.1832 -8.15627 74.1126
lradius 116.002
lwrist 19.2524
lhand -29.7993 8.80898
lfingers 7.12502
lthumb -3.12365 38.7658
rfemur -24.7196 8.77162 8.22569
rtibia 40.5923
rfoot -16.0412 -5.41059
rtoes 4.68688
lfemur -18.6176 5.46799 -21.1238
ltibia 35.2645
lfoot -18.6535 5.08236
ltoes -6.76896
486
root 8.84962 18.2904 10.9069 -175.835 13.9893 174.35
lowerback 12.6539 3.39392 -4.75566
upperback 2.92307 4.18476 -3.5907
thorax -4.05382 2.2973 -1.77082
lowerneck -12.6037 -0.7265 -1.81285
upperneck 2.26304 -0.616331 0.942214
head 2.95543 -0.234209 0.591341
rclavicle 1.21259e-014 -6.55989e-015
rhumerus -15.9249 8.51631 -75.6882
rradius 105.62
rwrist -5.87966
rhand -29.5252 58.0922
rfingers 7.12502
rthumb -2.8589 28.1316
lclavicle 1.21259e-014 -6.55989e-015
lhumerus -25.5396 -7.4105 74.2525
lradius 116.149
lwrist 19.2913
lhand -29.8658 8.63507
lfingers 7.12502
lthumb -3.18781 38.591
rfemur -24.4096 10.1743 7.78328
rtibia 39.1313
rfoot -15.6433 -4.54535
rtoes 7.80523
lfemur -17.2238 5.69843 -21.4802
ltibia 33.3302
lfoot -18.6927 6.42699
ltoes -5.60322
487
root 8.81521 18.3614 10.8438 -175.968 16.0276 174.071
lowerback 12.0578 3.83157 -4.61713
upperback 2.67223 4.78831 -4.02078
thorax -3.94796 2.59154 -2.36155
lowerneck -12.2613 -0.520716 -1.40616
upperneck 2.57153 -0.429312 0.855829
head 2.99111 -0.151518 0.502995
rclavicle -1.38155e-014 6.75868e-015
rhumerus -14.2598 9.79834 -75.7919
rradius 105.337
rwrist -4.49534
rhand -33.2396 62.1653
rfingers 7.12502
rthumb -6.44555 32.2833
lclavicle -1.38155e-014 6.75868e-015
lhumerus -27.8421 -6.80174 74.304
lradius 116.28
lwrist 19.5084
lhand -29.8111 8.55941
lfingers 7.12502
lthumb -3.13508 38.5161
rfemur -24.03 11.4224 7.2285
rtibia 37.7406
rfoot -15.0566 -3.89846
rtoes 7.45853
lfemur -15.7031 5.821 -22.0291
ltibia 31.3551
lfoot -18.823 8.07231
ltoes -5.95614
488
root 8.78588 18.4237 10.7844 -176.291 17.9271 173.688
lowerback 11.6808 4.15953 -4.62023
upperback 2.4515 5.22747 -4.42838
thorax -3.93298 2.81117 -2.83521
lowerneck -11.8718 -0.169123 -0.955125
upperneck 2.79849 -0.041586 0.674269
head 2.98846 0.0301096 0.387811
rclavicle 8.5378e-014 -4.17448e-014
rhumerus -12.6207 11.1653 -75.8423
rradius 105.349
rwrist -3.67116
rhand -34.298 62.4061
rfingers 7.12502
rthumb -7.46724 32.5579
lclavicle 8.5378e-014 -4.17448e-014
lhumerus -29.9023 -6.00569 74.1293
lradius 116.347
lwrist 19.8656
lhand -29.6433 8.62836
lfingers 7.12502
lthumb -2.97301 38.5874
rfemur -23.4731 12.6496 6.65923
rtibia 36.4409
rfoot -14.4987 -3.57149
rtoes 5.07694
lfemur -14.0289 5.94386 -22.6585
ltibia 29.3728
lfoot -18.9207 9.59238
ltoes -6.51183
489
root 8.76049 18.4703 10.7314 -176.616 19.498 173.255
lowerback 11.0165 4.33976 -4.5902
upperback 2.48584 5.53962 -4.86727
thorax -3.4805 2.97698 -3.29219
lowerneck -11.9902 0.122314 -0.545618
upperneck 3.1157 0.283355 0.560787
head 3.11775 0.188143 0.299978
rclavicle -7.89175e-014 3.57812e-014
rhumerus -10.3654 11.4689 -75.736
rradius 106.619
rwrist -8.43124
rhand -25.7081 55.6753
rfingers 7.12502
rthumb 0.827638 25.6971
lclavicle -7.89175e-014 3.57812e-014
lhumerus -31.2934 -5.06716 73.7385
lradius 116.349
lwrist 20.3892
lhand -29.4821 8.64618
lfingers 7.12502
lthumb -2.81735 38.6073
rfemur -22.9084 13.6141 6.0838
rtibia 35.1909
rfoot -13.9637 -3.15835
rtoes 5.43909
lfemur -12.4491 6.01723 -23.2847
ltibia 27.4283
lfoot -18.9242 10.6418
ltoes -5.97385
490
root 8.74313 18.5051 10.6855 -176.585 20.6273 173.142
lowerback 9.88444 4.43632 -4.29905
upperback 2.64578 5.81349 -5.20568
thorax -2.62161 3.1207 -3.71876
lowerneck -12.2016 0.256784 -0.0783361
upperneck 3.25859 0.399221 0.439412
head 3.20802 0.247371 0.186092
rclavicle 1.90833e-014 -6.75868e-014
rhumerus -8.16914 12.5613 -75.6127
rradius 105.799
rwrist -5.72084
rhand -30.2713 58.8381
rfingers 7.12502
rthumb -3.57949 28.8884
lclavicle 1.90833e-014 -6.75868e-014
lhumerus -31.9793 -4.2966 73.313
lradius 116.23
lwrist 20.9882
lhand -29.8226 8.68998
lfingers 7.12502
lthumb -3.14612 38.6465
rfemur -22.5551 14.4823 5.82234
rtibia 33.9625
rfoot -13.4389 -3.00085
rtoes 6.86298
lfemur -11.2773 5.98814 -23.5557
ltibia 25.5411
lfoot -18.753 11.5603
ltoes -5.57641
